<svg xmlns="http://www.w3.org/2000/svg" viewBox="0 0 160 240">
  <g class="head">
    <path d="M85,45 85,54 75,54 75,45 A20,22.5 1,1,1 85,45Z" />
  </g>
  <g class="trunk">
    <path d="M65,60 95,60 105,130 55,130 65,60Z" />
  </g>
  <g class="upper">
    <path d="M60,60 55,85 10,140 0,136 5,130 0,130 0,125 5,125 60,60Z" />
    <path d="M100,60 105,85 150,140 160,136 155,130 160,130 160,125 155,125 100,60Z" />
  </g>
  <g class="lower">
    <path d="M55,136 105,136 100,230 105,235 105,240 85,240 85,150 75,150 75,240 55,240 55,235 60,230 55,140Z" />
  </g>
</svg>
